<svg id="at" xmlns="http://www.w3.org/2000/svg" width="15.892" height="17.525" viewBox="0 0 15.892 17.525">
  <path id="at-2" data-name="at" d="M17.551,8.088a9.038,9.038,0,0,1-.291,1.96A5.673,5.673,0,0,1,16.5,11.77a4.022,4.022,0,0,1-1.292,1.223,3.647,3.647,0,0,1-1.887.465,2.735,2.735,0,0,1-1.364-.334,2.337,2.337,0,0,1-.922-.945,2.923,2.923,0,0,1-2.473,1.242A2.514,2.514,0,0,1,6.4,12.261a3.8,3.8,0,0,1-.537-1.345,5.8,5.8,0,0,1-.07-1.754,8.149,8.149,0,0,1,.534-2.149,5.84,5.84,0,0,1,.988-1.646A4.179,4.179,0,0,1,8.674,4.318a3.789,3.789,0,0,1,1.651-.367,5.135,5.135,0,0,1,.988.084,4.043,4.043,0,0,1,.767.23,4.145,4.145,0,0,1,.635.335c.194.125.389.254.583.385l-.48,5.519a1.835,1.835,0,0,0,.014.646.9.9,0,0,0,.2.4.71.71,0,0,0,.32.208,1.187,1.187,0,0,0,1.124-.221,2.4,2.4,0,0,0,.6-.767,4.937,4.937,0,0,0,.405-1.152,7.9,7.9,0,0,0,.177-1.435A9.168,9.168,0,0,0,15.432,5.5a5.329,5.329,0,0,0-.992-2.074,4.607,4.607,0,0,0-1.778-1.336,6.455,6.455,0,0,0-2.591-.474,5.721,5.721,0,0,0-2.563.559A5.88,5.88,0,0,0,5.561,3.726,7.431,7.431,0,0,0,4.286,6.055a10.5,10.5,0,0,0-.537,2.9,9.65,9.65,0,0,0,.274,2.961A5.348,5.348,0,0,0,5.1,14.04a4.515,4.515,0,0,0,1.833,1.275,7.032,7.032,0,0,0,2.53.423,8.665,8.665,0,0,0,1.66-.179c.274-.055.533-.12.781-.193a5.877,5.877,0,0,0,.672-.241l.347,1.562a3.854,3.854,0,0,1-.752.372,7.241,7.241,0,0,1-.889.257,8.677,8.677,0,0,1-1.857.208,9.74,9.74,0,0,1-3.386-.545,6.232,6.232,0,0,1-2.468-1.623,6.816,6.816,0,0,1-1.482-2.68,11.43,11.43,0,0,1-.414-3.72,11.345,11.345,0,0,1,.712-3.57A8.835,8.835,0,0,1,4.106,2.55,7.815,7.815,0,0,1,6.722.679,8.191,8.191,0,0,1,10.111,0a8.552,8.552,0,0,1,3.283.588,6.386,6.386,0,0,1,2.37,1.654A6.786,6.786,0,0,1,17.17,4.8,9.769,9.769,0,0,1,17.551,8.088Zm-9.4,1.073a3.725,3.725,0,0,0,.193,1.847.991.991,0,0,0,.953.624,1.052,1.052,0,0,0,.326-.06,1.164,1.164,0,0,0,.376-.226,2,2,0,0,0,.381-.46,3.53,3.53,0,0,0,.35-.778L11.1,5.822a2.238,2.238,0,0,0-.583-.077,2.014,2.014,0,0,0-.969.222,1.919,1.919,0,0,0-.687.653,3.833,3.833,0,0,0-.456,1.073,9.1,9.1,0,0,0-.258,1.467Z" transform="translate(-1.67)" fill="#004cff"/>
</svg>
