<svg xmlns="http://www.w3.org/2000/svg" width="36" height="29.818" viewBox="0 0 36 29.818">
  <g id="camera_icon" data-name="camera icon" transform="translate(-0.5 -3.5)">
    <path id="Path_340" data-name="Path 340" d="M35.5,29.227a3.091,3.091,0,0,1-3.091,3.091H4.591A3.091,3.091,0,0,1,1.5,29.227v-17A3.091,3.091,0,0,1,4.591,9.136h6.182L13.864,4.5h9.273l3.091,4.636h6.182A3.091,3.091,0,0,1,35.5,12.227Z" transform="translate(0)" fill="none" stroke="#004cff" stroke-linecap="round" stroke-linejoin="round" stroke-width="2"/>
    <path id="Path_341" data-name="Path 341" d="M26.044,20.522A7.022,7.022,0,1,1,19.022,13.5,7.022,7.022,0,0,1,26.044,20.522Z" transform="translate(-0.522 -0.735)" fill="none" stroke="#004cff" stroke-linecap="round" stroke-linejoin="round" stroke-width="2"/>
  </g>
</svg>
