<svg xmlns="http://www.w3.org/2000/svg" width="18" height="19.949" viewBox="0 0 18 19.949">
  <g id="Icon" transform="translate(0 1)">
    <path id="Path_319" data-name="Path 319" d="M.172,0H13.828a1.548,1.548,0,0,1,1.552,1.544L16,13.279a1.548,1.548,0,0,1-1.552,1.544H-.448A1.548,1.548,0,0,1-2,13.279l.621-11.735A1.548,1.548,0,0,1,.172,0Z" transform="translate(2 4.126)" fill="#004cff"/>
    <path id="Path_320" data-name="Path 320" d="M5.62,8V3.619A3.108,3.108,0,0,1,8.717.5h2.818a3.108,3.108,0,0,1,3.1,3.119V8" transform="translate(-1.222 -0.5)" fill="none" stroke="#fff" stroke-linecap="round" stroke-miterlimit="10" stroke-width="2"/>
    <path id="Path_321" data-name="Path 321" d="M5.62,4.213V3.619A3.108,3.108,0,0,1,8.717.5h2.818a3.108,3.108,0,0,1,3.1,3.119v.594" transform="translate(-1.222 -0.5)" fill="none" stroke="#004cff" stroke-linecap="round" stroke-miterlimit="10" stroke-width="2"/>
  </g>
</svg>
