<svg xmlns="http://www.w3.org/2000/svg" width="20.556" height="17" viewBox="0 0 20.556 17">
  <g id="Image_Icon" data-name="Image Icon" transform="translate(0.5 0.5)">
    <path id="Path_340" data-name="Path 340" d="M21.056,18.722A1.778,1.778,0,0,1,19.278,20.5h-16A1.778,1.778,0,0,1,1.5,18.722V8.944A1.778,1.778,0,0,1,3.278,7.167H6.833L8.611,4.5h5.333l1.778,2.667h3.556a1.778,1.778,0,0,1,1.778,1.778Z" transform="translate(-1.5 -4.5)" fill="none" stroke="#0042e0" stroke-linecap="round" stroke-linejoin="round" stroke-width="1"/>
    <path id="Path_341" data-name="Path 341" d="M20.022,17.511A4.011,4.011,0,1,1,16.011,13.5,4.011,4.011,0,0,1,20.022,17.511Z" transform="translate(-6.233 -8.713)" fill="none" stroke="#0042e0" stroke-linecap="round" stroke-linejoin="round" stroke-width="1"/>
  </g>
</svg>
