<svg id="Like" xmlns="http://www.w3.org/2000/svg" width="47" height="40" viewBox="0 0 47 40">
  <rect id="Rectangle_3" data-name="Rectangle 3" width="47" height="40" rx="11" fill="#ffebeb"/>
  <g id="Path_337" data-name="Path 337" transform="translate(11 9)" fill="none">
    <path d="M13,24C6.01,19.208,2.344,14.849.841,11.2-3.187,1.422,8.317-3.254,13,2.518c4.683-5.772,16.187-1.1,12.159,8.682C23.656,14.849,19.99,19.208,13,24Z" stroke="none"/>
    <path d="M 13.00000095367432 22.78336715698242 C 16.00282096862793 20.67962646484375 18.49087333679199 18.56557464599609 20.40209197998047 16.49324226379395 C 22.19486236572266 14.54934215545654 23.48440170288086 12.64024257659912 24.2348518371582 10.81908226013184 C 25.62643241882324 7.440852165222168 24.8719310760498 5.168682098388672 23.99394226074219 3.857452154159546 C 22.81376266479492 2.09491229057312 20.68365097045898 1.000002145767212 18.43488121032715 1.000002145767212 C 16.55483245849609 1.000002145767212 14.90048217773438 1.762932181358337 13.77657222747803 3.148252248764038 L 13.00000190734863 4.105452060699463 L 12.22343158721924 3.148252248764038 C 11.09953212738037 1.762932181358337 9.445172309875488 1.000002145767212 7.565122127532959 1.000002145767212 C 5.316591739654541 1.000002145767212 3.186591863632202 2.094982147216797 2.006331920623779 3.85764217376709 C 1.128281950950623 5.168962001800537 0.3736919164657593 7.441152095794678 1.765101909637451 10.81897258758545 C 2.515601873397827 12.64024257659912 3.805141925811768 14.54934215545654 5.597911834716797 16.49324226379395 C 7.509129524230957 18.56557464599609 9.99718189239502 20.67963409423828 13.00000095367432 22.78336715698242 M 13.00000190734863 24.00000190734863 C 6.009982109069824 19.20799255371094 2.34400200843811 14.84854221343994 0.8405219316482544 11.1999626159668 C -3.187197923660278 1.422211766242981 8.317193031311035 -3.253797769546509 13.00000190734863 2.518222093582153 C 17.68281173706055 -3.253801584243774 29.18720245361328 1.422214984893799 25.15947151184082 11.1999626159668 C 23.65600204467773 14.84854221343994 19.99002265930176 19.20799255371094 13.00000190734863 24.00000190734863 Z" stroke="none" fill="#202020"/>
  </g>
</svg>
