<svg id="Like_Icon" data-name="Like Icon" xmlns="http://www.w3.org/2000/svg" width="10.451" height="10.049" viewBox="0 0 10.451 10.049">
  <path id="Icon_ionic-ios-heart" data-name="Icon ionic-ios-heart" d="M11.012,3.938h-.025A2.859,2.859,0,0,0,8.6,5.244,2.859,2.859,0,0,0,6.214,3.938H6.189A2.84,2.84,0,0,0,3.375,6.776a6.115,6.115,0,0,0,1.2,3.334A21.045,21.045,0,0,0,8.6,13.987a21.044,21.044,0,0,0,4.025-3.876,6.115,6.115,0,0,0,1.2-3.334A2.84,2.84,0,0,0,11.012,3.938Z" transform="translate(-3.375 -3.938)" fill="#0042e0"/>
</svg>
