<svg xmlns="http://www.w3.org/2000/svg" width="58" height="63.559" viewBox="0 0 58 63.559">
  <g id="Logo" transform="translate(0 2.5)">
    <path id="Path_01" data-name="Path 01" d="M5,0H49a5,5,0,0,1,5,5l2,38a5,5,0,0,1-5,5H3a5,5,0,0,1-5-5L0,5A5,5,0,0,1,5,0Z" transform="translate(2 13.059)" fill="#004cff"/>
    <path id="Path_02" data-name="Path 02" d="M5.62,24.25V10.37A10.016,10.016,0,0,1,15.776.5h9.242a10.016,10.016,0,0,1,10.156,9.87V24.25" transform="translate(8.299 -0.5)" fill="none" stroke="#fff" stroke-linecap="round" stroke-miterlimit="10" stroke-width="5"/>
    <path id="Path_03" data-name="Path 03" d="M5.62,12.25V10.37A10.016,10.016,0,0,1,15.776.5h9.242a10.016,10.016,0,0,1,10.156,9.87v1.88" transform="translate(8.299 -0.5)" fill="none" stroke="#004cff" stroke-linecap="round" stroke-miterlimit="10" stroke-width="5"/>
    <path id="Title" d="M-8.872-64.981a14.426,14.426,0,0,0-3.49-.465c-4.809,0-6.773,2.456-6.773,5.041,0,2.2,1.086,3.749,4.472,6.075,2.353,1.6,3.387,2.508,3.387,3.568,0,1.112-.982,2.12-2.973,2.12a15.589,15.589,0,0,1-4.628-.8l-.052,3.387a20.343,20.343,0,0,0,4.447.595c4.214,0,7.006-2.275,7.006-5.455,0-2.353-1.732-4.033-4.55-6-2.353-1.629-3.361-2.482-3.361-3.516,0-1.112.879-1.836,3.025-1.836a10.3,10.3,0,0,1,3.438.62Z" transform="translate(42.302 95.196)" fill="#fff"/>
  </g>
</svg>
