<svg id="Profile_Active" data-name="Profile Active" xmlns="http://www.w3.org/2000/svg" width="24" height="31.5" viewBox="0 0 24 31.5">
  <g id="Profile" transform="translate(6455 12183)">
    <rect id="Rectangle_610" data-name="Rectangle 610" width="24" height="24" transform="translate(-6455 -12183)" fill="#fff" opacity="0"/>
    <g id="profile-2" data-name="profile" transform="translate(-4460.42 -6161.919)">
      <g id="Icon_feather-user" data-name="Icon feather-user" transform="translate(-1992.483 -6020)">
        <path id="Path_338" data-name="Path 338" d="M25.921,31.564V27.173a4.834,4.834,0,0,0-4.98-4.673H10.98A4.834,4.834,0,0,0,6,27.173v4.391" transform="translate(-6 -9.645)" fill="none" stroke="#000" stroke-width="2"/>
        <g id="Path_339" data-name="Path 339" transform="translate(-6.712 -4.5)" fill="none">
          <path d="M21.346,9.173A4.673,4.673,0,1,1,16.673,4.5,4.673,4.673,0,0,1,21.346,9.173Z" stroke="none"/>
          <path d="M 16.6728687286377 11.84573650360107 C 18.14669799804688 11.84573650360107 19.34573936462402 10.64669704437256 19.34573936462402 9.172866821289062 C 19.34573936462402 7.699036598205566 18.14669799804688 6.499996662139893 16.6728687286377 6.499996662139893 C 15.1990385055542 6.499996662139893 13.99999904632568 7.699036598205566 13.99999904632568 9.172866821289062 C 13.99999904632568 10.64669704437256 15.1990385055542 11.84573650360107 16.6728687286377 11.84573650360107 M 16.6728687286377 13.84573650360107 C 14.09211826324463 13.84573650360107 11.99999904632568 11.75361728668213 11.99999904632568 9.172866821289062 C 11.99999904632568 6.592116832733154 14.09211826324463 4.499996662139893 16.6728687286377 4.499996662139893 C 19.25361824035645 4.499996662139893 21.34573936462402 6.592116832733154 21.34573936462402 9.172866821289062 C 21.34573936462402 11.75361728668213 19.25361824035645 13.84573650360107 16.6728687286377 13.84573650360107 Z" stroke="none" fill="#000"/>
        </g>
      </g>
    </g>
  </g>
  <line id="Mark_05" data-name="Mark 05" x2="9" transform="translate(7.5 30)" fill="none" stroke="#000" stroke-linecap="round" stroke-width="3"/>
</svg>
