<svg id="Share" xmlns="http://www.w3.org/2000/svg" width="30" height="30" viewBox="0 0 30 30">
  <circle id="Ellipse_182" data-name="Ellipse 182" cx="15" cy="15" r="15" fill="#ffebeb"/>
  <path id="Icon_ionic-ios-share-alt" data-name="Icon ionic-ios-share-alt" d="M21.976,12.219,15.5,6.847a.352.352,0,0,0-.257-.1c-.2.008-.459.134-.459.326V9.769a.182.182,0,0,1-.165.167c-6.44.875-9.153,5.148-10.112,9.584-.037.175.23.338.353.2a12.223,12.223,0,0,1,9.731-4.371.212.212,0,0,1,.193.2v2.645c0,.285.427.411.666.216l6.523-5.465a.426.426,0,0,0,.161-.342A.51.51,0,0,0,21.976,12.219Z" transform="translate(2.103 1.344)" fill="#b5a2a2"/>
</svg>
