<svg id="star" xmlns="http://www.w3.org/2000/svg" width="15.73" height="15" viewBox="0 0 15.73 15">
  <g id="Path_268" data-name="Path 268" transform="translate(0 -0.452)" fill="none">
    <path d="M8.236.7l2,4.736,5.122.44a.4.4,0,0,1,.23.707L11.7,9.948l1.164,5.008a.4.4,0,0,1-.6.437l-4.4-2.655-4.4,2.655a.4.4,0,0,1-.6-.437L4.026,9.948.14,6.581a.4.4,0,0,1,.23-.707l5.122-.44L7.493.7a.4.4,0,0,1,.744,0Z" stroke="none"/>
    <path d="M 7.864495277404785 4.957552909851074 L 6.864822387695312 7.323213577270508 L 4.304316520690918 7.543181419372559 L 6.246912002563477 9.226263046264648 L 5.665032386779785 11.72892379760742 L 7.8650221824646 10.40214347839355 L 10.06502246856689 11.72892951965332 L 9.483131408691406 9.22624397277832 L 11.42484855651855 7.543984413146973 L 8.864341735839844 7.324023246765137 L 7.864495277404785 4.957552909851074 M 7.864622116088867 0.4520015716552734 C 8.015811920166016 0.4520015716552734 8.167001724243164 0.5343589782714844 8.236442565917969 0.6990737915039062 L 10.23723220825195 5.434593200683594 L 15.35950183868408 5.8746337890625 C 15.71476173400879 5.905313491821289 15.85929203033447 6.348593711853027 15.58961200714111 6.581933975219727 L 11.70431232452393 9.948073387145996 L 12.86861228942871 14.95569324493408 C 12.9493522644043 15.3036937713623 12.5722827911377 15.5774040222168 12.26708221435547 15.39250373840332 L 7.8650221824646 12.73770332336426 L 3.462971687316895 15.39250373840332 C 3.156963348388672 15.57659530639648 2.780702590942383 15.30288314819336 2.861442565917969 14.95569324493408 L 4.025742530822754 9.948073387145996 L 0.1396322250366211 6.581123352050781 C -0.1300477981567383 6.347784042358398 0.013671875 5.90450382232666 0.3697423934936523 5.873823165893555 L 5.492012023925781 5.433783531188965 L 7.492801666259766 0.6990737915039062 C 7.56224250793457 0.5343589782714844 7.713432312011719 0.4520015716552734 7.864622116088867 0.4520015716552734 Z" stroke="none" fill="#eca61b"/>
  </g>
</svg>
