<svg id="Vouchers" xmlns="http://www.w3.org/2000/svg" width="35" height="35" viewBox="0 0 35 35">
  <circle id="Ellipse" cx="17.5" cy="17.5" r="17.5" fill="#e5ebfc"/>
  <g id="Icon" transform="translate(-231 -74)">
    <g id="Subtraction_10" data-name="Subtraction 10" transform="translate(-6523.999 -5316)" fill="none">
      <path d="M6777,5416h-9a4,4,0,0,1-4-4v-2.4a1.6,1.6,0,1,0,0-3.2l0-2.4a4,4,0,0,1,4-4h9a4,4,0,0,1,4,4v2.4a1.6,1.6,0,1,0,0,3.2v2.4A4,4,0,0,1,6777,5416Z" stroke="none"/>
      <path d="M 6776.9990234375 5415.00048828125 C 6778.6533203125 5415.00048828125 6779.9990234375 5413.65478515625 6779.9990234375 5412.00048828125 L 6779.9990234375 5410.4013671875 C 6779.0576171875 5410.00927734375 6778.39404296875 5409.08056640625 6778.39404296875 5408.00048828125 C 6778.39404296875 5406.92138671875 6779.0576171875 5405.99267578125 6779.9990234375 5405.60009765625 L 6779.9990234375 5404 C 6779.9990234375 5402.345703125 6778.6533203125 5401 6776.9990234375 5401 L 6767.99951171875 5401 C 6766.34521484375 5401 6764.9990234375 5402.345703125 6764.9990234375 5403.9990234375 L 6765.00048828125 5405.59912109375 C 6765.9423828125 5405.9912109375 6766.60595703125 5406.919921875 6766.60595703125 5408.00048828125 C 6766.60595703125 5409.080078125 6765.94140625 5410.00830078125 6764.9990234375 5410.40087890625 L 6764.9990234375 5412.00048828125 C 6764.9990234375 5413.65478515625 6766.34521484375 5415.00048828125 6767.99951171875 5415.00048828125 L 6776.9990234375 5415.00048828125 M 6776.9990234375 5416.00048828125 L 6767.99951171875 5416.00048828125 C 6765.79345703125 5416.00048828125 6763.9990234375 5414.2060546875 6763.9990234375 5412.00048828125 L 6763.9990234375 5409.60009765625 C 6764.88671875 5409.59912109375 6765.60595703125 5408.8818359375 6765.60595703125 5408.00048828125 C 6765.60595703125 5407.1181640625 6764.8857421875 5406.400390625 6764.0009765625 5406.400390625 L 6763.9990234375 5404 C 6763.9990234375 5401.79443359375 6765.79345703125 5400 6767.99951171875 5400 L 6776.9990234375 5400 C 6779.20458984375 5400 6780.9990234375 5401.79443359375 6780.9990234375 5404 L 6780.9990234375 5406.400390625 C 6780.11279296875 5406.4013671875 6779.39404296875 5407.11865234375 6779.39404296875 5408.00048828125 C 6779.39404296875 5408.8828125 6780.1142578125 5409.6005859375 6780.9990234375 5409.6005859375 L 6780.9990234375 5412.00048828125 C 6780.9990234375 5414.2060546875 6779.20458984375 5416.00048828125 6776.9990234375 5416.00048828125 Z" stroke="none" fill="#004cff"/>
    </g>
    <line id="Line_110" data-name="Line 110" x2="13" transform="translate(242 92)" fill="none" stroke="#004cff" stroke-width="1" stroke-dasharray="1"/>
  </g>
</svg>
