<svg id="Wishlist" xmlns="http://www.w3.org/2000/svg" width="24" height="31.5" viewBox="0 0 24 31.5">
  <g id="Wishlist-2" data-name="Wishlist" transform="translate(6539 12183)">
    <rect id="Rectangle_607" data-name="Rectangle 607" width="24" height="24" transform="translate(-6539 -12183)" fill="#fff" opacity="0"/>
    <g id="wishlist-3" data-name="wishlist" transform="translate(-4317.951 -6159.108)">
      <g id="heart" transform="translate(-2218.061 -6020)" fill="none" stroke-linecap="round" stroke-linejoin="round">
        <path d="M9.011,16.636C4.166,13.315,1.625,10.293.583,7.764-2.209.986,5.765-2.255,9.011,1.746c3.246-4,11.221-.76,8.429,6.018C16.4,10.293,13.857,13.315,9.011,16.636Z" stroke="none"/>
        <path d="M 9.011425018310547 16.636474609375 C 13.85680484771729 13.3147144317627 16.39802551269531 10.29281425476074 17.44020462036133 7.763664245605469 C 20.232177734375 0.9858629703521729 12.25748252868652 -2.255484104156494 9.011425018310547 1.745594024658203 C 5.765366077423096 -2.25548529624939 -2.209325075149536 0.9858636856079102 0.5826449990272522 7.763664245605469 C 1.624825000762939 10.29281425476074 4.166035175323486 13.3147144317627 9.011425018310547 16.636474609375 M 9.011428833007812 18.63647651672363 C 8.616374969482422 18.63647651672363 8.221320152282715 18.51966857910156 7.880555152893066 18.28605461120605 C 3.140835046768188 15.03674411773682 0.0633150190114975 11.75286388397217 -1.266515016555786 8.525644302368164 C -2.372314929962158 5.841194152832031 -2.22332501411438 3.230993986129761 -0.8470849990844727 1.175634026527405 C 0.4645150303840637 -0.7831659317016602 2.798495054244995 -1.999995946884155 5.244044780731201 -1.999995946884155 C 6.614194869995117 -1.999995946884155 7.916116237640381 -1.614182233810425 9.011430740356445 -0.9072362184524536 C 10.10674667358398 -1.614179372787476 11.40866851806641 -1.999995946884155 12.77880477905273 -1.999995946884155 C 15.22452545166016 -1.999995946884155 17.55857467651367 -0.7832159399986267 18.87011528015137 1.175494074821472 C 20.24630546569824 3.230774164199829 20.39523506164551 5.841023921966553 19.28945541381836 8.525424003601074 C 17.95953559875488 11.752854347229 14.88201522827148 15.03673362731934 10.14229488372803 18.28605461120605 C 9.801534652709961 18.51966857910156 9.406482696533203 18.63647651672363 9.011428833007812 18.63647651672363 Z" stroke="none" fill="#000"/>
      </g>
    </g>
  </g>
  <line id="Mark_02" data-name="Mark 02" x2="9" transform="translate(7.5 30)" fill="none" stroke="#000" stroke-linecap="round" stroke-width="3"/>
</svg>
